<?xml version="1.0" standalone="no"?><!DOCTYPE svg PUBLIC "-//W3C//DTD SVG 1.1//EN"
  "http://www.w3.org/Graphics/SVG/1.1/DTD/svg11.dtd">
<svg t="1559293046855" class="icon" style="" viewBox="0 0 1024 1024" version="1.1" xmlns="http://www.w3.org/2000/svg"
     p-id="1991" xmlns:xlink="http://www.w3.org/1999/xlink" width="200" height="200">
  <defs>
    <style type="text/css"></style>
  </defs>
  <path
    d="M804.359667 144.344812h-42.002742v92.33379c0 6.443874-6.120146 11.715514-13.596539 11.715514H275.244725c-7.478097 0-13.596539-5.271641-13.596539-11.715514V144.344812H219.645444c-44.871987 0-81.587754 31.633251-81.587753 70.294789V952.745957c0 38.661537 36.715767 70.294789 81.587753 70.294788h584.719335c44.873691 0 81.589458-31.633251 81.589457-70.294788V214.639601c-0.006815-38.661537-36.722582-70.294789-81.594569-70.294789z m-131.472399 718.146023H343.290463c-23.693418 0-43.086376-16.707727-43.086376-37.122981 0-20.415255 19.387847-37.121278 43.086376-37.121278h329.596805c23.691714 0 43.086376 16.706023 43.086376 37.121278s-19.394662 37.122982-43.086376 37.122981z m0-190.95811H343.290463c-23.693418 0-43.086376-16.707727-43.086376-37.122981 0-20.413551 19.387847-37.121278 43.086376-37.121278h329.596805c23.691714 0 43.086376 16.707727 43.086376 37.121278 0 20.415255-19.394662 37.122982-43.086376 37.122981z m0-190.952998H343.290463c-23.693418 0-43.086376-16.706023-43.086376-37.121278s19.387847-37.121278 43.086376-37.121278h329.596805c23.691714 0 43.086376 16.706023 43.086376 37.121278s-19.394662 37.121278-43.086376 37.121278zM348.039028 181.537651c-6.440466 0-11.712106-5.273344-11.712106-11.717218V122.552865c0-38.663241 31.623028-70.294789 70.269231-70.294788h53.440533c0-28.709484 23.264053-51.98376 51.963314-51.983761s51.963314 23.274276 51.963314 51.983761h53.440533c38.647907 0 70.269231 31.631547 70.269231 70.294788V169.820433c0 6.443874-5.271641 11.717218-11.712106 11.717218H348.039028z" p-id="1992"></path>
</svg>
